<?xml version="1.0" encoding="UTF-8" standalone="no"?>
<!DOCTYPE svg PUBLIC "-//W3C//DTD SVG 1.1//EN" "http://www.w3.org/Graphics/SVG/1.1/DTD/svg11.dtd">
<svg width="100%" height="100%" viewBox="0 0 2048 800" version="1.1" xmlns="http://www.w3.org/2000/svg" xmlns:xlink="http://www.w3.org/1999/xlink" xml:space="preserve" xmlns:serif="http://www.serif.com/" style="fill-rule:evenodd;clip-rule:evenodd;stroke-linejoin:round;stroke-miterlimit:2;">
    <g id="名称未設定-4.svg" serif:id="名称未設定 4.svg" transform="matrix(0.336571,0,0,0.391729,364.007,329.724)">
        <g transform="matrix(1,0,0,1,-1024,-768)">
            <g transform="matrix(3.23498,0,0,2.95296,65.6535,-1269.19)">
                <path d="M206.228,569.948L108.876,600.357L107.115,593.694L209.922,561.341L217.711,549.516L115.049,581.895L112.953,575.809L223.603,540.988L236.689,527.116L124.337,562.242L123.11,557.517L240.329,520.628C242.058,518.765 259.268,506.413 261.098,504.606L123.493,548.447L121.842,542.519L267.049,496.823C277.633,488.567 291.568,478.588 311.429,464.574L130.361,463.48L50.959,734.962L175.094,735.026C176.491,709.678 181.261,626.603 206.228,569.948Z" style="fill:rgb(1,64,152);"/>
            </g>
            <g transform="matrix(3.23498,0,0,2.95296,65.6535,-1269.19)">
                <path d="M416.561,766.514L493.66,739.677L494.821,744.963L417.076,771.378L415.189,778.912L496.513,751.204L497.127,755.093L415.016,782.162L414.133,785.089L412.532,789.955L498.526,761.567L499.795,765.94L411.712,794.381L406.459,803.375L501.983,773.438L503.819,780.126L405.285,812.108C350.175,874.225 299.934,902.652 271.898,916.681L567.235,916.879L484.695,630.008L407.712,629.816C407.712,629.816 431.371,702.202 416.561,766.514Z" style="fill:rgb(1,64,152);"/>
            </g>
            <g transform="matrix(3.23498,0,0,2.95296,65.6535,-1269.19)">
                <path d="M36.095,904.145C36.095,904.145 243.412,871.611 236.672,672.184C229.932,472.757 445.481,470.853 448.36,472.648C451.238,474.443 364.387,503.062 340.129,581.993C315.87,660.924 425.751,807.219 260.158,880.673C260.158,880.673 111.871,929.992 36.095,904.145Z" style="fill:rgb(52,158,236);"/>
            </g>
        </g>
    </g>
    <g transform="matrix(1.08936,0,0,1.15092,-658.377,291.95)">
        <path d="M1417.38,44.864L1417.38,83.664L1322.98,83.664C1302.98,83.664 1290.18,82.864 1279.38,81.264L1279.38,125.664C1291.38,124.064 1305.38,123.264 1322.58,123.264L1417.38,123.264L1417.38,212.864L1316.98,212.864C1296.58,212.864 1281.78,212.064 1267.38,210.464L1267.38,256.464C1284.18,254.464 1298.58,253.664 1316.98,253.664L1569.78,253.664C1586.18,253.664 1602.98,254.464 1617.78,256.464L1617.78,210.464C1604.58,212.064 1590.98,212.864 1570.58,212.864L1461.78,212.864L1461.78,123.264L1562.58,123.264C1581.38,123.264 1595.38,124.064 1606.58,125.664L1606.58,81.264C1596.18,82.864 1583.78,83.664 1562.98,83.664L1461.78,83.664L1461.78,44.864L1502.58,44.864C1519.38,44.864 1530.18,45.264 1541.78,46.864L1541.78,26.464C1566.98,42.064 1580.18,48.464 1611.78,61.664C1617.78,45.264 1623.78,32.464 1633.38,17.664C1590.18,3.664 1560.18,-11.536 1527.38,-36.336C1498.98,-57.136 1481.78,-74.336 1465.78,-97.936L1416.18,-97.936C1387.38,-49.936 1327.38,-6.736 1252.98,19.264C1263.78,34.064 1266.58,39.264 1276.18,60.464C1302.58,49.664 1318.58,41.264 1341.38,27.664L1341.38,46.864C1352.98,45.264 1364.58,44.864 1380.58,44.864L1417.38,44.864ZM1370.98,7.264C1404.18,-16.736 1420.58,-32.736 1440.98,-59.936C1461.78,-33.536 1481.38,-15.136 1512.98,7.264C1506.98,7.664 1506.98,7.664 1503.38,7.664L1379.38,7.264L1370.98,7.264ZM1312.58,142.864C1325.38,162.864 1335.78,184.064 1344.18,209.264L1384.18,193.264C1373.38,166.064 1365.78,150.864 1352.18,126.864L1312.58,142.864ZM1528.18,127.264C1518.58,154.864 1508.98,176.064 1496.58,196.064L1534.18,210.064C1547.78,186.864 1549.38,184.064 1550.58,181.664C1565.38,152.464 1565.38,152.464 1570.58,143.264L1528.18,127.264Z" style="fill-rule:nonzero;"/>
        <path d="M1716.98,188.064C1723.78,187.264 1728.98,186.864 1738.58,186.864L1743.78,186.864L1743.78,226.064C1743.78,235.264 1743.38,243.264 1742.18,251.664L1778.18,251.664C1777.38,243.264 1776.98,236.864 1776.98,226.064L1776.98,186.864L1785.78,186.864C1796.18,186.864 1801.78,187.264 1808.58,188.064L1808.58,156.064C1800.98,157.264 1797.78,157.264 1786.18,157.264L1728.58,157.264C1747.78,137.664 1754.18,122.064 1756.18,94.064L1766.18,94.064L1766.18,127.264C1766.18,144.464 1771.78,147.664 1800.98,147.664C1804.98,147.664 1808.58,147.664 1816.18,147.264L1816.18,214.464C1816.18,220.864 1813.78,222.864 1806.58,222.864C1801.78,222.864 1793.38,222.064 1782.18,220.464C1787.78,236.864 1789.38,244.864 1790.18,262.064L1800.98,262.064C1843.38,262.064 1852.58,255.264 1852.58,224.464L1852.58,94.064C1852.58,79.264 1852.98,69.664 1853.78,58.864C1846.18,59.664 1838.58,60.064 1821.78,60.064L1702.18,60.064C1688.98,60.064 1676.98,59.664 1668.98,58.864C1669.78,69.264 1670.18,81.664 1670.18,96.864L1670.18,214.064C1670.18,238.464 1669.78,251.264 1668.18,264.464L1709.78,264.464C1708.58,254.464 1708.18,245.264 1708.18,224.464L1708.18,142.064C1714.18,146.464 1715.78,147.664 1724.18,156.864C1720.98,156.464 1720.18,156.464 1716.98,156.064L1716.98,188.064ZM1708.18,94.064L1728.18,94.064C1726.98,114.864 1721.78,125.664 1708.18,135.664L1708.18,94.064ZM1795.38,94.064L1816.18,94.064L1816.18,121.264C1812.18,121.664 1809.38,121.664 1806.58,121.664C1797.38,121.664 1795.38,120.464 1795.38,114.864L1795.38,94.064ZM1921.78,-34.336L1906.18,-34.336C1886.98,-34.336 1877.78,-34.736 1866.98,-35.936C1867.78,-24.736 1868.18,-17.136 1868.18,4.064L1868.18,93.664C1868.18,115.264 1868.18,120.864 1866.98,133.264C1877.38,132.464 1883.38,132.064 1902.18,132.064L1921.78,132.064L1921.78,206.064C1888.98,210.864 1876.58,212.064 1856.18,212.464L1866.58,260.064C1876.18,257.264 1876.58,257.264 1897.38,253.264C1929.38,246.864 1969.38,236.864 1991.38,230.464C1994.98,246.064 1995.78,250.464 1999.38,268.064L2036.98,252.064C2025.38,206.864 2019.38,188.464 2004.58,148.064L1970.18,160.064C1976.18,176.864 1978.18,182.864 1981.38,194.064C1974.58,195.664 1972.58,196.464 1961.78,198.864L1961.78,132.064L1980.98,132.064C1997.78,132.064 2008.58,132.464 2018.58,133.264C2017.38,122.064 2016.98,111.264 2016.98,90.864L2016.98,4.864C2016.98,-14.336 2017.38,-23.536 2018.58,-35.936C2008.18,-34.736 1997.78,-34.336 1981.38,-34.336L1961.78,-34.336L1961.78,-58.336C1961.78,-77.536 1962.58,-89.136 1964.18,-100.736L1919.38,-100.736C1920.98,-88.736 1921.78,-76.736 1921.78,-58.336L1921.78,-34.336ZM1921.78,4.064L1921.78,93.264L1902.98,93.264L1902.98,4.064L1921.78,4.064ZM1961.78,93.264L1961.78,4.064L1981.38,4.064L1981.38,93.264L1961.78,93.264ZM1857.38,-89.936C1845.78,-88.336 1835.38,-87.936 1813.78,-87.936L1710.18,-87.936C1688.58,-87.936 1677.78,-88.336 1666.18,-89.936L1666.18,-49.936C1679.38,-51.136 1686.58,-51.536 1707.78,-51.536L1815.78,-51.536C1837.78,-51.536 1844.18,-51.136 1857.38,-49.936L1857.38,-89.936ZM1840.98,-9.136C1840.98,-25.536 1840.98,-29.936 1841.78,-37.936C1833.38,-36.736 1828.18,-36.736 1811.38,-36.736L1713.38,-36.736C1696.98,-36.736 1691.78,-36.736 1682.98,-37.936C1683.78,-30.736 1684.18,-21.936 1684.18,-9.136L1684.18,17.264C1684.18,30.064 1683.78,38.864 1682.98,46.064C1691.38,45.264 1698.18,44.864 1713.38,44.864L1816.58,44.864C1828.58,44.864 1834.98,45.264 1841.78,46.064C1840.98,38.064 1840.98,34.064 1840.98,16.864L1840.98,-9.136ZM1802.98,14.864L1722.98,14.864L1722.98,-5.936L1802.98,-5.936L1802.98,14.864Z" style="fill-rule:nonzero;"/>
        <path d="M2262.18,64.464L2262.18,204.464C2262.18,218.064 2259.78,219.664 2241.78,219.664C2226.18,219.664 2208.98,218.064 2194.58,215.664C2201.38,233.664 2204.18,243.664 2205.78,260.864C2221.38,262.064 2234.18,262.464 2243.78,262.464C2271.38,262.464 2286.18,260.064 2294.18,254.464C2303.38,247.664 2307.78,235.664 2307.78,215.664L2307.78,64.464L2377.78,64.464C2396.98,64.464 2410.18,65.264 2422.98,66.864L2422.98,22.064C2411.78,23.664 2398.98,24.064 2376.98,24.064L2196.58,24.064C2170.98,24.064 2162.98,23.664 2151.78,22.464L2151.78,66.464C2161.78,65.264 2176.18,64.464 2196.58,64.464L2262.18,64.464ZM2234.58,-65.136L2136.58,-65.136C2119.38,-65.136 2104.98,-65.936 2090.98,-67.136C2092.18,-52.736 2092.58,-40.736 2092.58,-5.936C2092.58,76.864 2089.78,125.664 2082.98,157.664C2077.78,182.064 2067.38,208.864 2054.18,230.464C2070.18,242.464 2078.18,249.664 2089.78,264.464C2107.78,234.864 2116.98,210.864 2124.18,176.064C2133.78,131.264 2136.58,86.464 2136.58,-23.136L2376.58,-23.136C2393.38,-23.136 2409.38,-22.336 2423.78,-21.136L2423.78,-67.536C2411.78,-65.936 2399.38,-65.136 2376.98,-65.136L2279.38,-65.136L2279.38,-79.536C2279.38,-91.536 2279.78,-97.136 2281.38,-105.136L2232.58,-105.136C2234.18,-97.136 2234.58,-89.936 2234.58,-80.736L2234.58,-65.136Z" style="fill-rule:nonzero;"/>
    </g>
    <g transform="matrix(0.876161,0,0,0.876161,-937.696,108.481)">
        <path d="M1222.18,631.425L1235.12,631.425C1253.26,631.425 1257.29,634.785 1259.31,651.081L1264.68,651.081L1264.68,607.233L1259.31,607.233C1257.63,622.857 1252.92,626.553 1235.12,626.553L1222.18,626.553L1222.18,573.465L1237.8,573.465C1260.99,573.465 1270.23,581.193 1274.26,603.873L1280.14,603.369L1277.62,568.593L1185.39,568.593L1185.39,572.961C1198.83,573.129 1200.51,574.977 1200.51,590.433L1200.51,672.417C1200.51,687.873 1199.16,689.385 1185.39,689.889L1185.39,694.257L1237.97,694.257L1237.97,689.889C1223.86,689.553 1222.18,687.705 1222.18,672.417L1222.18,631.425Z" style="fill-rule:nonzero;"/>
        <path d="M1290.39,606.561L1290.39,610.593C1302.15,610.761 1302.99,611.937 1302.99,626.889L1302.99,673.425C1302.99,688.377 1301.81,690.057 1289.88,690.225L1289.88,694.257L1336.59,694.257L1336.59,690.225C1324.66,690.057 1323.48,688.377 1323.48,673.425L1323.48,636.969C1323.48,626.217 1323.82,614.457 1324.49,604.377L1290.39,606.561ZM1301.31,577.833C1301.31,584.553 1306.68,589.929 1313.4,589.929C1320.12,589.929 1325.5,584.553 1325.5,577.833C1325.5,571.113 1320.12,565.737 1313.4,565.737C1306.68,565.737 1301.31,571.113 1301.31,577.833Z" style="fill-rule:nonzero;"/>
        <path d="M1378.92,604.377L1346.16,606.561L1346.16,610.593C1357.25,610.761 1358.6,612.609 1358.6,626.889L1358.6,673.425C1358.6,688.377 1357.42,690.057 1345.83,690.225L1345.83,694.257L1391.69,694.257L1391.69,690.225C1380.27,690.057 1379.09,688.545 1379.09,673.425L1379.09,639.825C1379.09,634.281 1380.94,627.393 1383.63,622.521C1387.83,615.297 1393.88,611.433 1400.93,611.433C1411.35,611.433 1415.72,618.993 1415.72,637.137L1415.72,673.425C1415.72,688.209 1414.37,690.057 1403.12,690.225L1403.12,694.257L1448.81,694.257L1448.81,690.225C1437.22,690.057 1436.04,688.377 1436.04,673.425L1436.04,636.129C1436.04,626.049 1434.87,620.505 1431.84,615.465C1427.48,607.737 1419.92,604.041 1409,604.041C1395.56,604.041 1386.32,609.249 1379.09,621.009L1378.92,604.377Z" style="fill-rule:nonzero;"/>
        <path d="M1544.4,689.721C1533.65,689.553 1532.98,688.545 1532.98,670.065C1532.98,668.889 1532.98,665.697 1533.15,660.993L1533.48,631.761C1533.48,621.345 1531.47,615.297 1526.93,610.929C1521.89,606.225 1513.66,604.041 1502.07,604.041C1490.64,604.041 1481.57,606.057 1474.52,610.425C1467.96,614.457 1464.1,620.169 1464.1,626.049C1464.1,631.089 1468.13,633.777 1475.86,633.777C1482.92,633.777 1485.77,631.593 1486.11,625.545C1486.61,619.161 1487.12,616.473 1488.8,613.617C1491.15,609.585 1494.68,607.905 1500.05,607.905C1510.13,607.905 1513.16,613.113 1513.16,630.921L1513.16,641.841C1502.74,642.345 1493.84,643.521 1485.6,645.033C1467.63,648.561 1458.72,657.465 1458.72,671.913C1458.72,687.033 1468.64,696.609 1484.6,696.609C1495.52,696.609 1504.59,692.409 1513.32,683.001C1514.16,693.249 1515.84,695.769 1521.22,695.769C1525.59,695.769 1534.49,694.929 1544.4,693.753L1544.4,689.721ZM1513.16,658.641C1513.16,668.217 1512.32,673.761 1510.13,678.129C1506.94,685.017 1500.56,689.217 1493.84,689.217C1485.6,689.217 1480.23,681.321 1480.23,669.393C1480.23,653.769 1488.8,647.553 1513.16,645.705L1513.16,658.641Z" style="fill-rule:nonzero;"/>
        <path d="M1586.91,604.377L1554.15,606.561L1554.15,610.593C1565.24,610.761 1566.58,612.609 1566.58,626.889L1566.58,673.425C1566.58,688.377 1565.4,690.057 1553.81,690.225L1553.81,694.257L1599.68,694.257L1599.68,690.225C1588.25,690.057 1587.08,688.545 1587.08,673.425L1587.08,639.825C1587.08,634.281 1588.92,627.393 1591.61,622.521C1595.81,615.297 1601.86,611.433 1608.92,611.433C1619.33,611.433 1623.7,618.993 1623.7,637.137L1623.7,673.425C1623.7,688.209 1622.36,690.057 1611.1,690.225L1611.1,694.257L1656.8,694.257L1656.8,690.225C1645.2,690.057 1644.03,688.377 1644.03,673.425L1644.03,636.129C1644.03,626.049 1642.85,620.505 1639.83,615.465C1635.46,607.737 1627.9,604.041 1616.98,604.041C1603.54,604.041 1594.3,609.249 1587.08,621.009L1586.91,604.377Z" style="fill-rule:nonzero;"/>
        <path d="M1743.48,670.569C1737.77,683.001 1727.86,690.393 1716.27,690.393C1707.7,690.393 1700.64,685.689 1696.28,677.121C1692.41,669.393 1690.4,659.481 1690.4,648.561C1690.4,638.145 1692.24,626.217 1695.1,618.825C1697.79,612.273 1703.67,608.073 1710.56,608.073C1718.79,608.073 1723.66,613.785 1724.33,623.865C1724.67,629.913 1724.67,629.913 1725.68,631.257C1727.19,633.105 1730.38,634.281 1734.24,634.281C1741.13,634.281 1745.67,631.089 1745.67,626.049C1745.67,614.121 1729.71,604.041 1711.06,604.041C1698.96,604.041 1688.55,608.073 1681.16,615.297C1672.76,624.033 1667.88,637.137 1667.88,651.585C1667.88,678.633 1685.19,696.945 1711.06,696.945C1727.86,696.945 1740.29,689.049 1747.85,673.425L1743.48,670.569Z" style="fill-rule:nonzero;"/>
        <path d="M1757.09,606.561L1757.09,610.593C1768.85,610.761 1769.69,611.937 1769.69,626.889L1769.69,673.425C1769.69,688.377 1768.52,690.057 1756.59,690.225L1756.59,694.257L1803.29,694.257L1803.29,690.225C1791.36,690.057 1790.19,688.377 1790.19,673.425L1790.19,636.969C1790.19,626.217 1790.52,614.457 1791.2,604.377L1757.09,606.561ZM1768.01,577.833C1768.01,584.553 1773.39,589.929 1780.11,589.929C1786.83,589.929 1792.2,584.553 1792.2,577.833C1792.2,571.113 1786.83,565.737 1780.11,565.737C1773.39,565.737 1768.01,571.113 1768.01,577.833Z" style="fill-rule:nonzero;"/>
        <path d="M1899.72,689.721C1888.97,689.553 1888.3,688.545 1888.3,670.065C1888.3,668.889 1888.3,665.697 1888.47,660.993L1888.8,631.761C1888.8,621.345 1886.79,615.297 1882.25,610.929C1877.21,606.225 1868.98,604.041 1857.39,604.041C1845.96,604.041 1836.89,606.057 1829.84,610.425C1823.28,614.457 1819.42,620.169 1819.42,626.049C1819.42,631.089 1823.45,633.777 1831.18,633.777C1838.24,633.777 1841.09,631.593 1841.43,625.545C1841.93,619.161 1842.44,616.473 1844.12,613.617C1846.47,609.585 1850,607.905 1855.37,607.905C1865.45,607.905 1868.48,613.113 1868.48,630.921L1868.48,641.841C1858.06,642.345 1849.16,643.521 1840.92,645.033C1822.95,648.561 1814.04,657.465 1814.04,671.913C1814.04,687.033 1823.96,696.609 1839.92,696.609C1850.84,696.609 1859.91,692.409 1868.64,683.001C1869.48,693.249 1871.16,695.769 1876.54,695.769C1880.91,695.769 1889.81,694.929 1899.72,693.753L1899.72,689.721ZM1868.48,658.641C1868.48,668.217 1867.64,673.761 1865.45,678.129C1862.26,685.017 1855.88,689.217 1849.16,689.217C1840.92,689.217 1835.55,681.321 1835.55,669.393C1835.55,653.769 1844.12,647.553 1868.48,645.705L1868.48,658.641Z" style="fill-rule:nonzero;"/>
        <path d="M1909.3,694.257L1956.34,694.257L1956.34,690.225C1944.08,689.889 1943.07,688.713 1943.07,673.425L1943.07,601.185C1943.07,589.929 1943.4,579.177 1944.08,566.745L1909.47,568.593L1909.47,572.457C1921.4,572.457 1922.57,573.969 1922.57,588.753L1922.57,673.425C1922.57,688.713 1921.56,689.889 1909.3,690.225L1909.3,694.257Z" style="fill-rule:nonzero;"/>
        <path d="M2025.72,694.929C2031.77,693.753 2033.96,693.417 2036.81,693.417C2039,693.417 2041.18,693.585 2043.2,693.921C2055.12,696.273 2059.16,696.777 2065.88,696.777C2078.14,696.777 2088.72,693.417 2096.62,687.201C2104.18,681.321 2108.38,671.577 2108.38,660.153C2108.38,650.409 2105.36,642.681 2099.64,636.801C2093.93,631.089 2086.71,626.553 2071.76,619.665C2058.32,613.281 2054.12,610.761 2049.92,606.729C2046.22,603.033 2044.37,598.161 2044.37,592.617C2044.37,579.681 2053.28,570.777 2066.21,570.777C2076.12,570.777 2084.36,575.481 2089.4,584.049C2092.92,589.761 2094.44,595.473 2095.11,605.049L2101.83,605.049L2103.17,567.417C2098.13,569.265 2095.78,569.769 2093.09,569.769C2091.41,569.769 2089.56,569.601 2087.21,569.097C2074.61,566.577 2072.26,566.241 2066.72,566.241C2057.64,566.241 2050.92,567.417 2045.21,570.105C2032.95,575.817 2025.39,587.745 2025.39,601.521C2025.39,613.113 2029.59,621.177 2039.16,628.233C2043.03,631.089 2046.89,633.273 2061.17,640.161C2082.17,650.409 2088.72,657.297 2088.72,668.721C2088.72,683.169 2079.82,691.905 2065.04,691.905C2046.22,691.905 2036.14,679.977 2033.79,654.777L2027.07,654.777L2025.72,694.929Z" style="fill-rule:nonzero;"/>
        <path d="M2203.8,646.881C2203.47,636.297 2202.63,631.257 2200.78,626.217C2195.24,611.769 2183.14,604.041 2166,604.041C2140.47,604.041 2123.84,622.521 2123.84,650.745C2123.84,678.801 2140.97,696.777 2167.68,696.777C2184.99,696.777 2196.24,689.721 2204.64,673.761L2200.44,671.073C2194.23,683.337 2184.32,690.225 2172.72,690.225C2162.48,690.225 2154.75,684.681 2149.88,673.593C2146.85,666.537 2145.68,659.313 2145.51,646.881L2203.8,646.881ZM2145.68,642.009C2146.35,633.273 2147.36,627.897 2149.2,622.689C2152.73,612.945 2158.28,607.905 2165.5,607.905C2172.05,607.905 2176.76,612.105 2179.95,621.009C2181.8,626.217 2182.47,631.425 2182.8,642.009L2145.68,642.009Z" style="fill-rule:nonzero;"/>
        <path d="M2215.73,606.561L2215.73,610.593C2226.32,610.593 2227.83,612.609 2227.83,626.889L2227.83,673.425C2227.83,688.377 2226.65,690.057 2215.06,690.225L2215.06,694.257L2261.76,694.257L2261.76,690.225C2249.33,689.721 2248.32,688.545 2248.32,673.425L2248.32,642.345C2248.32,634.449 2249.67,628.737 2252.36,623.697C2255.21,618.825 2258.57,615.969 2261.76,615.801L2262.1,615.801C2264.79,615.801 2265.63,616.977 2266.97,621.681C2268.15,625.545 2270.33,627.057 2274.87,627.057C2281.92,627.057 2286.96,622.857 2286.96,616.809C2286.96,609.585 2280.92,604.041 2272.68,604.041C2263.11,604.041 2254.54,610.593 2247.82,623.025L2247.82,617.985C2247.82,614.625 2247.65,610.761 2247.32,604.377L2215.73,606.561Z" style="fill-rule:nonzero;"/>
        <path d="M2342.91,677.121L2324.43,626.217C2323.42,623.193 2322.58,619.665 2322.58,617.649C2322.58,613.281 2326.28,610.761 2333.67,610.593L2333.67,606.561L2288.48,606.561L2288.48,610.425C2295.7,611.097 2298.22,613.785 2302.42,624.537L2329.3,695.433L2342.4,695.433L2366.09,630.585C2371.47,616.137 2376,611.433 2385.24,610.593L2385.24,606.561L2347.95,606.561L2347.95,610.425C2351.98,610.593 2353.66,610.929 2356.01,611.769C2359.37,613.113 2361.56,616.137 2361.56,619.665C2361.56,623.193 2360.88,626.889 2359.37,631.089L2342.91,677.121Z" style="fill-rule:nonzero;"/>
        <path d="M2391.96,606.561L2391.96,610.593C2403.72,610.761 2404.56,611.937 2404.56,626.889L2404.56,673.425C2404.56,688.377 2403.39,690.057 2391.46,690.225L2391.46,694.257L2438.16,694.257L2438.16,690.225C2426.24,690.057 2425.06,688.377 2425.06,673.425L2425.06,636.969C2425.06,626.217 2425.4,614.457 2426.07,604.377L2391.96,606.561ZM2402.88,577.833C2402.88,584.553 2408.26,589.929 2414.98,589.929C2421.7,589.929 2427.08,584.553 2427.08,577.833C2427.08,571.113 2421.7,565.737 2414.98,565.737C2408.26,565.737 2402.88,571.113 2402.88,577.833Z" style="fill-rule:nonzero;"/>
        <path d="M2525.69,670.569C2519.98,683.001 2510.07,690.393 2498.48,690.393C2489.91,690.393 2482.85,685.689 2478.48,677.121C2474.62,669.393 2472.6,659.481 2472.6,648.561C2472.6,638.145 2474.45,626.217 2477.31,618.825C2480,612.273 2485.88,608.073 2492.76,608.073C2501,608.073 2505.87,613.785 2506.54,623.865C2506.88,629.913 2506.88,629.913 2507.88,631.257C2509.4,633.105 2512.59,634.281 2516.45,634.281C2523.34,634.281 2527.88,631.089 2527.88,626.049C2527.88,614.121 2511.92,604.041 2493.27,604.041C2481.17,604.041 2470.76,608.073 2463.36,615.297C2454.96,624.033 2450.09,637.137 2450.09,651.585C2450.09,678.633 2467.4,696.945 2493.27,696.945C2510.07,696.945 2522.5,689.049 2530.06,673.425L2525.69,670.569Z" style="fill-rule:nonzero;"/>
        <path d="M2621.45,646.881C2621.12,636.297 2620.28,631.257 2618.43,626.217C2612.88,611.769 2600.79,604.041 2583.65,604.041C2558.12,604.041 2541.48,622.521 2541.48,650.745C2541.48,678.801 2558.62,696.777 2585.33,696.777C2602.64,696.777 2613.89,689.721 2622.29,673.761L2618.09,671.073C2611.88,683.337 2601.96,690.225 2590.37,690.225C2580.12,690.225 2572.4,684.681 2567.52,673.593C2564.5,666.537 2563.32,659.313 2563.16,646.881L2621.45,646.881ZM2563.32,642.009C2564,633.273 2565,627.897 2566.85,622.689C2570.38,612.945 2575.92,607.905 2583.15,607.905C2589.7,607.905 2594.4,612.105 2597.6,621.009C2599.44,626.217 2600.12,631.425 2600.45,642.009L2563.32,642.009Z" style="fill-rule:nonzero;"/>
        <path d="M2636.74,695.433C2642.28,694.425 2642.79,694.425 2645.31,694.425C2647.32,694.425 2649.34,694.593 2651.36,694.929C2661.27,696.609 2663.62,696.945 2668.49,696.945C2687.48,696.945 2698.73,686.361 2698.73,668.889C2698.73,656.289 2693.19,649.737 2676.05,641.841C2660.93,634.953 2660.93,634.953 2657.24,632.097C2653.54,629.241 2652.03,626.217 2652.03,621.849C2652.03,613.449 2657.91,607.905 2666.98,607.905C2679.08,607.905 2686.13,616.977 2687.31,634.113L2693.52,634.113L2695.04,604.713C2691.17,606.057 2689.32,606.393 2686.97,606.393C2685.12,606.393 2684.28,606.225 2679.58,605.385C2674.71,604.545 2670.34,604.041 2667.65,604.041C2648.67,604.041 2636.57,614.457 2636.57,630.753C2636.57,636.801 2638.42,641.673 2642.45,645.873C2646.48,650.241 2650.68,652.929 2660.6,657.297C2680.08,666.369 2684.45,670.065 2684.45,678.297C2684.45,687.537 2678.24,692.913 2667.99,692.913C2659.76,692.913 2653.88,689.553 2649.17,682.329C2646.48,677.961 2645.14,673.425 2644.13,664.689L2638.08,664.689L2636.74,695.433Z" style="fill-rule:nonzero;"/>
        <path d="M2801.04,651.753L2845.23,651.753L2851.61,670.233C2853.12,674.433 2853.96,678.633 2854.13,681.321L2854.13,681.825C2854.13,687.369 2850.27,689.553 2839.68,689.889L2839.68,694.257L2894.45,694.257L2894.45,689.889C2888.91,689.217 2887.4,688.881 2885.55,688.041C2881.68,686.025 2878.49,680.649 2874.63,670.233L2838,567.249L2825.57,568.593L2789.79,663.345C2782.23,683.169 2776.18,689.721 2765.26,689.889L2765.26,694.257L2808.44,694.257L2808.44,689.889C2797.35,689.553 2792.64,686.529 2792.64,679.977C2792.64,676.113 2793.82,670.905 2796.34,664.521L2801.04,651.753ZM2843.04,645.201L2803.4,645.201L2823.89,590.601L2843.04,645.201Z" style="fill-rule:nonzero;"/>
        <path d="M2942,680.649C2923.68,680.649 2919.65,679.305 2919.65,673.425C2919.65,669.729 2921.67,667.377 2927.38,664.353C2932.76,665.697 2937.46,666.201 2942.33,666.201C2952.24,666.201 2961.32,663.513 2967.7,658.473C2974.08,653.433 2977.78,645.033 2977.78,635.625C2977.78,626.385 2974.92,620.001 2967.87,613.113L2984.33,613.113L2984.33,605.721C2972.57,606.225 2966.69,606.393 2966.36,606.393C2962.16,606.393 2960.14,606.225 2954.76,605.385C2948.72,604.377 2945.36,604.041 2941.49,604.041C2919.48,604.041 2905.2,616.809 2905.2,636.465C2905.2,644.361 2907.72,651.417 2912.09,655.617C2914.11,657.633 2916.12,659.145 2921.67,662.169L2913.1,667.545C2906.21,671.913 2904.53,674.433 2904.53,679.473C2904.53,683.673 2906.21,687.537 2909.07,690.561C2910.92,692.577 2912.6,693.585 2916.63,695.433C2904.7,702.153 2903.02,704.169 2903.02,711.225C2903.02,724.329 2916.8,731.553 2941.32,731.553C2954.93,731.553 2966.19,729.033 2974.25,724.161C2981.64,719.625 2986.18,711.225 2986.18,701.817C2986.18,693.417 2982.48,687.201 2976.1,684.177C2969.72,681.489 2964.17,680.649 2949.56,680.649L2942,680.649ZM2926.04,634.281C2926.04,616.977 2931.24,607.905 2941.49,607.905C2951.74,607.905 2956.61,616.809 2956.61,635.289C2956.61,653.433 2951.74,662.337 2941.49,662.337C2931.41,662.337 2926.04,652.425 2926.04,634.281ZM2944.68,696.945C2963.67,696.945 2971.06,700.473 2971.06,709.713C2971.06,720.801 2960.98,727.353 2944.52,727.353C2927.21,727.353 2918.64,720.633 2918.64,707.361C2918.64,701.313 2920.32,697.953 2924.02,697.113L2944.68,696.945Z" style="fill-rule:nonzero;"/>
        <path d="M3075.39,646.881C3075.05,636.297 3074.21,631.257 3072.36,626.217C3066.82,611.769 3054.72,604.041 3037.59,604.041C3012.05,604.041 2995.42,622.521 2995.42,650.745C2995.42,678.801 3012.56,696.777 3039.27,696.777C3056.57,696.777 3067.83,689.721 3076.23,673.761L3072.03,671.073C3065.81,683.337 3055.9,690.225 3044.31,690.225C3034.06,690.225 3026.33,684.681 3021.46,673.593C3018.44,666.537 3017.26,659.313 3017.09,646.881L3075.39,646.881ZM3017.26,642.009C3017.93,633.273 3018.94,627.897 3020.79,622.689C3024.32,612.945 3029.86,607.905 3037.08,607.905C3043.64,607.905 3048.34,612.105 3051.53,621.009C3053.38,626.217 3054.05,631.425 3054.39,642.009L3017.26,642.009Z" style="fill-rule:nonzero;"/>
        <path d="M3119.91,604.377L3087.15,606.561L3087.15,610.593C3098.24,610.761 3099.58,612.609 3099.58,626.889L3099.58,673.425C3099.58,688.377 3098.4,690.057 3086.81,690.225L3086.81,694.257L3132.68,694.257L3132.68,690.225C3121.25,690.057 3120.08,688.545 3120.08,673.425L3120.08,639.825C3120.08,634.281 3121.92,627.393 3124.61,622.521C3128.81,615.297 3134.86,611.433 3141.92,611.433C3152.33,611.433 3156.7,618.993 3156.7,637.137L3156.7,673.425C3156.7,688.209 3155.36,690.057 3144.1,690.225L3144.1,694.257L3189.8,694.257L3189.8,690.225C3178.2,690.057 3177.03,688.377 3177.03,673.425L3177.03,636.129C3177.03,626.049 3175.85,620.505 3172.83,615.465C3168.46,607.737 3160.9,604.041 3149.98,604.041C3136.54,604.041 3127.3,609.249 3120.08,621.009L3119.91,604.377Z" style="fill-rule:nonzero;"/>
        <path d="M3276.48,670.569C3270.77,683.001 3260.86,690.393 3249.27,690.393C3240.7,690.393 3233.64,685.689 3229.28,677.121C3225.41,669.393 3223.4,659.481 3223.4,648.561C3223.4,638.145 3225.24,626.217 3228.1,618.825C3230.79,612.273 3236.67,608.073 3243.56,608.073C3251.79,608.073 3256.66,613.785 3257.33,623.865C3257.67,629.913 3257.67,629.913 3258.68,631.257C3260.19,633.105 3263.38,634.281 3267.24,634.281C3274.13,634.281 3278.67,631.089 3278.67,626.049C3278.67,614.121 3262.71,604.041 3244.06,604.041C3231.96,604.041 3221.55,608.073 3214.16,615.297C3205.76,624.033 3200.88,637.137 3200.88,651.585C3200.88,678.633 3218.19,696.945 3244.06,696.945C3260.86,696.945 3273.29,689.049 3280.85,673.425L3276.48,670.569Z" style="fill-rule:nonzero;"/>
        <path d="M3341,672.249L3323.69,626.889C3321.68,621.513 3321.17,619.665 3321.17,617.145C3321.17,612.609 3324.03,610.761 3331.25,610.593L3331.25,606.561L3286.4,606.561L3286.4,610.425C3294.29,611.097 3295.8,612.945 3301.52,626.385L3330.92,696.609L3328.4,703.329C3325.2,711.057 3322.85,713.241 3317.64,713.241C3315.96,713.241 3314.62,713.073 3310.59,712.233C3307.23,711.561 3305.38,711.393 3303.87,711.393C3299.5,711.393 3297.15,714.417 3297.15,720.129C3297.15,727.857 3301.35,731.721 3309.41,731.721C3319.83,731.721 3325.88,725.505 3332.76,708.201L3361.32,635.625C3368.88,616.641 3373.08,611.769 3382.49,610.425L3382.49,606.561L3345.87,606.561L3345.87,610.425C3355.28,610.929 3359.14,613.953 3359.14,620.841C3359.14,624.033 3358.47,627.057 3356.28,632.601L3341,672.249Z" style="fill-rule:nonzero;"/>
    </g>
</svg>
